<svg width="48" height="48" viewBox="0 0 48 48" fill="none" xmlns="http://www.w3.org/2000/svg">
<circle cx="24" cy="24" r="24" fill="white"/>
<mask id="mask0_1_2054" style="mask-type:alpha" maskUnits="userSpaceOnUse" x="0" y="0" width="48" height="48">
<path d="M48 24.0245C48 28.5889 46.7239 32.8589 44.5154 36.4908C43.9019 37.4969 43.2147 38.454 42.4785 39.3374C42.0123 39.9018 41.4969 40.4662 40.9816 40.9816C39.7055 42.2576 38.3068 43.3865 36.7608 44.3436C33.4724 46.4049 29.6442 47.7055 25.546 47.9509C25.0307 47.9754 24.5154 48 24 48C19.1166 48 14.5522 46.5276 10.773 44.0245C9.61964 43.2638 8.56443 42.4295 7.5583 41.4969C5.74234 39.8037 4.19632 37.8159 2.99387 35.6319C1.07976 32.1963 0 28.2209 0 24C0 17.3742 2.67484 11.362 7.04293 7.0184C11.3865 2.67484 17.3742 0 24.0245 0C30.6503 0 36.6626 2.67484 41.0061 7.0184C45.3252 11.411 48 17.3988 48 24.0245Z" fill="#DFEBFD"/>
</mask>
<g mask="url(#mask0_1_2054)">
<path d="M13.3589 39.8855C13.3589 39.8855 12.0745 41.1929 10.7901 42.6609C10.2396 43.2573 9.71205 43.8996 9.25332 44.473C7.71659 46.3997 6.27161 46.9502 4.57433 48.8311C3.51926 50.0009 2.14309 50.8955 -0.425771 51.3084C-2.99463 51.7212 -12.3985 52.3864 -12.3985 52.3864C-12.3985 52.3864 -12.6279 51.1478 -12.4673 50.7349C-12.4214 50.6202 -12.5361 50.3909 -12.6967 50.0697C-13.1095 49.244 -13.7976 47.9824 -12.4673 47.8219C-10.6553 47.6154 -1.82488 45.4822 -1.41203 44.84C-0.999177 44.1977 1.38619 41.2388 2.67062 38.5551C3.95505 35.8714 5.88169 32.5914 7.85421 29.3801C9.57443 26.5588 10.079 26.4212 10.9965 25.5955L12.0745 32.1556L13.3589 39.8855Z" fill="#6D9BFF"/>
<path d="M28.8194 14.3098C28.8194 14.3098 28.1772 16.1907 28.1084 17.8192C28.0396 19.4478 28.0396 21.6957 28.5213 22.5673C29.0029 23.4389 34.026 26.3749 34.026 26.3749C34.026 26.3749 28.3148 27.5677 22.6725 27.2236C17.0302 26.8796 15.8146 24.4941 15.8146 24.4941C15.8146 24.4941 20.1037 22.8196 20.2183 22.3838C20.333 21.948 21.1587 18.7138 21.1587 18.7138L28.8194 14.3098Z" fill="#F6C1AA"/>
<path opacity="0.28" d="M28.4065 22.2691C28.0624 21.2599 28.0624 19.2872 28.1083 17.8192C28.1771 16.1907 28.8193 14.3098 28.8193 14.3098L21.1815 18.6679C21.1815 18.6679 20.3558 21.9251 20.2412 22.3379C20.1265 22.7737 15.8374 24.4482 15.8374 24.4482C15.8374 24.4482 15.8833 24.5399 15.998 24.6776C20.1494 23.9894 24.2779 23.1407 28.4065 22.2691Z" fill="#EB9271"/>
<path d="M18.8651 13.9202C19.0485 12.5669 19.0944 7.6353 19.0944 7.6353L25.6771 5.3186L31.4341 8.52986C31.4341 8.52986 30.058 12.888 30.035 14.2642C30.0121 15.6405 29.9203 17.4755 29.0488 18.7829C28.2001 20.0904 25.9524 22.1318 25.4248 22.3841C23.8422 23.1181 22.8101 22.6135 21.6174 21.9254C21.1128 21.6272 20.4247 20.1363 19.7596 18.7141C19.0715 17.292 18.6816 15.2735 18.8651 13.9202Z" fill="#FDD2BB"/>
<path d="M29.1866 10.5024C29.1866 10.5024 29.2095 12.2686 29.6682 13.4155C29.76 13.6449 29.6912 14.333 29.5994 15.1587C29.8288 14.8835 30.0811 14.6312 30.3104 14.3789C30.7921 13.8742 31.2279 13.3696 31.6407 12.8421C31.893 11.8328 32.3288 10.4795 32.3059 9.69963C32.26 7.33707 32.26 6.02963 27.948 3.91939C27.1223 3.52945 25.448 2.42845 24.5993 2.74958C23.3149 3.23126 22.9479 3.69001 21.9387 4.5387C21.9387 4.5387 20.5855 4.26345 18.8882 6.09845C17.902 7.17651 18.2001 8.73625 18.246 9.90606C18.3607 12.2916 19.0029 12.1539 19.0029 12.1539C19.0947 10.9382 19.5613 10.9882 19.9283 9.15318C20.043 8.53387 20.2091 8.36773 20.8514 8.2301C21.4477 8.09248 21.7323 7.26826 23.7278 9.26382C24.9204 10.4566 25.5627 10.3648 29.1866 10.5024Z" fill="#5C3000"/>
<path d="M29.3473 14.2186C29.6684 13.0259 30.173 12.1543 30.7234 12.1772C31.251 12.2231 31.8015 13.2094 31.1363 14.3333C30.4711 15.4572 30.0354 16.1454 29.6684 16.5812C29.3014 17.0629 29.1408 14.9756 29.3473 14.2186Z" fill="#FDD2BB"/>
<path d="M29.6679 14.3561C29.8514 13.7139 30.1496 12.9111 30.6312 12.957C31.1129 13.0028 31.1817 13.5304 30.5165 14.4479C29.8514 15.3424 29.7138 15.8241 29.7138 15.8241C29.7138 15.8241 29.5761 14.7231 29.6679 14.3561Z" fill="#EB9271"/>
<path d="M23.9104 38.463C23.1993 42.6377 22.8782 52.8907 21.1122 52.1109C20.1488 51.6751 17.1671 51.698 14.6441 51.7897C12.5799 51.8815 10.8596 52.0191 10.8596 52.0191C10.8596 52.0191 10.745 47.3857 10.7908 42.6606C10.8138 40.3898 10.8596 38.119 10.9973 36.3069C11.0431 35.7105 11.0661 35.1371 11.089 34.5866C11.2496 29.288 10.378 26.2144 10.9973 25.618C11.6854 24.9528 19.6901 22.9343 20.08 21.9709L20.6764 24.7923C22.1443 27.1319 24.048 26.4208 24.048 26.4208C24.048 26.4208 24.6214 34.2884 23.9104 38.463Z" fill="#6D9BFF"/>
<path d="M22.0293 27.2009C21.6394 29.5176 21.5477 31.3296 20.8825 35.7795C20.2174 40.2294 20.5385 42.0644 20.2403 44.8628C19.9421 47.6611 19.3917 51.8128 19.3917 51.8128L24.1853 52.5239C24.1853 52.5239 24.3459 44.4958 24.5982 38.8531C24.8505 33.2105 25.7909 28.1872 25.7909 28.1872L26.4331 24.7466C26.4331 24.7466 24.667 26.6275 22.8321 26.444C20.9743 26.2146 22.0293 27.2009 22.0293 27.2009Z" fill="#2C5CFF"/>
<path d="M36.3645 30.5265C36.181 32.2469 36.9838 34.38 36.6168 36.7885C36.3645 38.3941 36.0434 40.3438 35.6993 42.2935C35.2177 45.0689 35.4929 52.0878 35.4929 52.0878C35.4929 52.0878 24.5523 51.6978 22.6945 52.2254C20.8596 52.73 22.0064 42.5458 21.8917 38.3024C21.777 34.0589 23.4973 26.3978 23.4973 26.3978C23.4973 26.3978 24.9193 26.3978 27.0982 24.7004C28.4515 23.6682 28.6808 22.292 28.6808 22.292C28.9331 23.2783 36.3874 25.5262 36.9838 26.3061C37.0755 26.4207 37.1443 26.6501 37.1902 26.9483C37.259 27.7052 36.525 28.9209 36.3645 30.5265Z" fill="#6D9BFF"/>
<path d="M23.4744 26.3979C24.1396 26.2144 26.3644 24.9758 27.1901 23.8748C28.0158 22.7738 28.2452 21.5352 28.2452 21.5352C28.2452 21.5352 29.025 22.7967 29.1168 23.5995C29.2085 24.4024 27.3277 28.3018 26.9837 29.3798C26.9837 29.3798 26.3873 29.2651 25.2864 28.3247C24.1855 27.3843 23.4744 26.3979 23.4744 26.3979Z" fill="#2C5CFF"/>
<path d="M20.3556 21.8562C20.3556 21.8562 19.9886 22.4067 20.8143 23.76C21.64 25.1134 23.452 26.4208 23.452 26.4208L20.5162 29.2651C20.5162 29.2651 19.8281 27.5677 19.4152 26.0997C19.0024 24.6317 19.0712 23.0719 19.2776 22.6131C19.507 22.1773 20.3556 21.8562 20.3556 21.8562Z" fill="#2C5CFF"/>
<path d="M24.346 32.7057C24.323 33.1415 23.9561 33.4397 23.5203 33.4167C23.0845 33.3938 22.7863 33.0268 22.8093 32.591C22.8322 32.1552 23.1992 31.857 23.635 31.8799C24.0708 31.9028 24.3919 32.2698 24.346 32.7057Z" fill="#2C5CFF"/>
<path d="M23.7495 40.9635C23.7265 41.3993 23.3595 41.6975 22.9238 41.6745C22.488 41.6516 22.1898 41.2846 22.2127 40.8488C22.2357 40.413 22.6026 40.1148 23.0384 40.1377C23.4742 40.1606 23.7953 40.5277 23.7495 40.9635Z" fill="#2C5CFF"/>
<path d="M27.6027 35.7564C29.5064 35.917 31.5936 36.1463 32.3964 36.0546V37.2703C32.3964 37.2703 30.4927 37.0638 28.8183 37.0638C26.4329 37.0638 26.4329 37.0638 26.4329 37.0638L26.6393 35.7564C26.6393 35.7564 26.6164 35.6876 27.6027 35.7564Z" fill="#2C5CFF"/>
<path d="M45.9755 48.7392C45.9755 48.7392 43.8424 47.5694 42.1222 46.7895C40.402 46.0096 37.9019 47.4088 37.9019 47.4088C37.9019 47.4088 37.6038 46.606 37.168 45.5968C36.7322 44.5417 36.1817 43.2572 35.6771 42.3167C35.4019 41.7662 35.1496 41.3533 34.9432 41.1469C34.0716 40.2294 34.1633 39.1513 33.911 38.6238C33.911 38.6009 33.8881 38.5779 33.8881 38.555C33.7046 37.8669 34.1863 35.0685 34.7138 32.5224C35.2643 29.8846 35.9982 25.7788 35.9982 25.7788C36.2505 26.0082 37.1221 26.2146 37.5808 26.7651C37.5808 26.7651 40.7002 31.4902 42.0075 34.7474C44.3929 40.6652 44.7828 41.8809 45.1727 44.06C45.6085 46.2161 45.9755 48.7392 45.9755 48.7392Z" fill="#6D9BFF"/>
<path d="M39.3473 44.1517C39.3473 44.1517 37.627 45.4821 35.2417 46.2161C32.627 47.0189 31.0214 47.2712 31.0214 47.2712C31.0214 47.2712 31.2049 49.4273 31.2737 51.6752C31.2737 51.6752 37.0078 52.5698 40.7464 51.8587C44.485 51.1247 45.4254 51.2623 46.0446 49.6338C46.6639 48.0052 45.6318 44.8169 45.1501 43.4177C44.6685 41.9956 41.6638 43.0966 39.3473 44.1517Z" fill="#6D9BFF"/>
<path d="M30.3328 47.2481C30.952 48.0739 30.9291 49.3125 31.0897 51.0329C31.2043 52.2256 30.7915 52.2027 30.7915 52.2027L33.9338 52.1109C33.9338 52.1109 34.2778 50.2989 33.7961 48.6244C33.2915 46.95 33.2915 46.95 33.2915 46.95L30.3328 47.2481Z" fill="#2C5CFF"/>
</g>
</svg>
