<svg width="60" height="60" viewBox="0 0 60 60" fill="none" xmlns="http://www.w3.org/2000/svg">
<circle cx="30" cy="30" r="30" fill="#CBE1FD"/>
<mask id="mask0_1_2020" style="mask-type:alpha" maskUnits="userSpaceOnUse" x="0" y="0" width="60" height="60">
<path d="M60 30.0307C60 35.7362 58.4049 41.0736 55.6442 45.6135C54.8773 46.8712 54.0184 48.0675 53.0982 49.1718C52.5153 49.8773 51.8712 50.5828 51.227 51.227C49.6319 52.8221 47.8835 54.2331 45.9509 55.4294C41.8405 58.0061 37.0552 59.6319 31.9325 59.9386C31.2883 59.9693 30.6442 60 30 60C23.8957 60 18.1902 58.1595 13.4663 55.0307C12.0245 54.0797 10.7055 53.0368 9.44787 51.8712C7.17793 49.7546 5.2454 47.2699 3.74234 44.5399C1.3497 40.2454 0 35.2761 0 30C0 21.7178 3.34354 14.2024 8.80367 8.773C14.2331 3.34355 21.7178 0 30.0307 0C38.3129 0 45.8282 3.34355 51.2577 8.773C56.6564 14.2638 60 21.7485 60 30.0307Z" fill="#DFEBFD"/>
</mask>
<g mask="url(#mask0_1_2020)">
<path d="M16.596 49.9544C16.596 49.9544 14.9904 51.5886 13.3849 53.4236C12.6968 54.1691 12.0374 54.9719 11.464 55.6887C9.54309 58.0972 7.73686 58.7853 5.61526 61.1364C4.29643 62.5986 2.57621 63.7168 -0.634865 64.2329C-3.84594 64.749 -15.6008 65.5805 -15.6008 65.5805C-15.6008 65.5805 -15.8875 64.0322 -15.6868 63.5161C-15.6294 63.3728 -15.7728 63.0861 -15.9735 62.6846C-16.4895 61.6525 -17.3496 60.0755 -15.6868 59.8748C-13.4218 59.6168 -2.38375 56.9503 -1.86769 56.1475C-1.35162 55.3447 1.63009 51.646 3.23562 48.2914C4.84116 44.9368 7.24946 40.8367 9.71511 36.8226C11.8654 33.296 12.4961 33.124 13.6429 32.0918L14.9904 40.2919L16.596 49.9544Z" fill="#6D9BFF"/>
<path d="M35.9214 17.9841C35.9214 17.9841 35.1186 20.3352 35.0326 22.3709C34.9466 24.4066 34.9466 27.2165 35.5486 28.306C36.1507 29.3955 42.4295 33.0655 42.4295 33.0655C42.4295 33.0655 35.2906 34.5565 28.2377 34.1264C21.1848 33.6963 19.6653 30.7144 19.6653 30.7144C19.6653 30.7144 25.0266 28.6214 25.17 28.0766C25.3133 27.5319 26.3455 23.4891 26.3455 23.4891L35.9214 17.9841Z" fill="#F6C1AA"/>
<path opacity="0.28" d="M35.4049 27.9333C34.9749 26.6717 34.9749 24.2059 35.0322 22.3709C35.1182 20.3352 35.921 17.9841 35.921 17.9841L26.3738 23.4318C26.3738 23.4318 25.3416 27.5032 25.1983 28.0193C25.0549 28.5641 19.6936 30.6571 19.6936 30.6571C19.6936 30.6571 19.7509 30.7718 19.8943 30.9438C25.0836 30.0837 30.2443 29.0228 35.4049 27.9333Z" fill="#EB9271"/>
<path d="M23.4788 17.4968C23.7082 15.8052 23.7655 9.64073 23.7655 9.64073L31.9939 6.74487L39.1902 10.7589C39.1902 10.7589 37.47 16.2066 37.4413 17.9269C37.4126 19.6472 37.2979 21.941 36.2085 23.5753C35.1477 25.2096 32.338 27.7614 31.6786 28.0768C29.7003 28.9943 28.4101 28.3635 26.9193 27.5033C26.2885 27.1306 25.4284 25.2669 24.597 23.4893C23.7369 21.7116 23.2495 19.1885 23.4788 17.4968Z" fill="#FDD2BB"/>
<path d="M36.3802 13.2249C36.3802 13.2249 36.4089 15.4327 36.9823 16.8662C37.097 17.153 37.011 18.0131 36.8963 19.0453C37.183 18.7012 37.4984 18.3859 37.7851 18.0705C38.3871 17.4397 38.9319 16.8089 39.4479 16.1495C39.7633 14.8879 40.3081 13.1963 40.2794 12.2214C40.222 9.26821 40.222 7.63391 34.832 4.9961C33.7999 4.50868 31.707 3.13243 30.6462 3.53383C29.0406 4.13594 28.5819 4.70938 27.3204 5.77024C27.3204 5.77024 25.6289 5.42618 23.5073 7.71993C22.2744 9.0675 22.6472 11.0172 22.7045 12.4795C22.8478 15.4613 23.6506 15.2893 23.6506 15.2893C23.7653 13.7697 24.3486 13.8321 24.8073 11.5383C24.9507 10.7642 25.1584 10.5565 25.9612 10.3845C26.7066 10.2125 27.0624 9.18219 29.5567 11.6766C31.0476 13.1676 31.8503 13.0529 36.3802 13.2249Z" fill="#5C3000"/>
<path d="M36.5814 17.8702C36.9828 16.3793 37.6135 15.2898 38.3016 15.3184C38.961 15.3758 39.6491 16.6087 38.8177 18.0136C37.9862 19.4185 37.4415 20.2786 36.9828 20.8234C36.524 21.4255 36.3234 18.8164 36.5814 17.8702Z" fill="#FDD2BB"/>
<path d="M36.9815 18.0421C37.2109 17.2393 37.5836 16.2358 38.1857 16.2931C38.7877 16.3505 38.8738 17.0099 38.0423 18.1568C37.2109 19.275 37.0388 19.8771 37.0388 19.8771C37.0388 19.8771 36.8668 18.5008 36.9815 18.0421Z" fill="#EB9271"/>
<path d="M29.7858 48.1759C28.897 53.3942 28.4956 66.2105 26.288 65.2357C25.0838 64.6909 21.3567 64.7196 18.203 64.8343C15.6226 64.9489 13.4724 65.121 13.4724 65.121C13.4724 65.121 13.329 59.3293 13.3864 53.4228C13.415 50.5843 13.4724 47.7458 13.6444 45.4807C13.7017 44.7353 13.7304 44.0185 13.7591 43.3303C13.9598 36.7071 12.8703 32.8651 13.6444 32.1196C14.5045 31.2881 24.5104 28.765 24.9978 27.5608L25.7433 31.0874C27.5782 34.012 29.9578 33.1231 29.9578 33.1231C29.9578 33.1231 30.6746 42.9576 29.7858 48.1759Z" fill="#6D9BFF"/>
<path d="M27.4345 34.0982C26.9471 36.994 26.8324 39.2591 26.001 44.8215C25.1695 50.3838 25.5709 52.6776 25.1982 56.1755C24.8255 59.6735 24.1374 64.8631 24.1374 64.8631L30.1295 65.7519C30.1295 65.7519 30.3302 55.7168 30.6455 48.6635C30.9609 41.6102 32.1364 35.3311 32.1364 35.3311L32.9392 31.0303C32.9392 31.0303 30.7316 33.3814 28.4379 33.152C26.1156 32.8653 27.4345 34.0982 27.4345 34.0982Z" fill="#2C5CFF"/>
<path d="M45.3535 38.2551C45.1241 40.4055 46.1276 43.072 45.6688 46.0825C45.3535 48.0896 44.9521 50.5267 44.522 52.9638C43.9199 56.4331 44.264 65.2067 44.264 65.2067C44.264 65.2067 30.5883 64.7193 28.266 65.3787C25.9723 66.0095 27.4059 53.2792 27.2625 47.9749C27.1191 42.6706 29.2694 33.0942 29.2694 33.0942C29.2694 33.0942 31.047 33.0942 33.7707 30.9725C35.4622 29.6822 35.7489 27.9619 35.7489 27.9619C36.0643 29.1948 45.3821 32.0047 46.1276 32.9795C46.2422 33.1229 46.3283 33.4096 46.3856 33.7823C46.4716 34.7285 45.5542 36.2481 45.3535 38.2551Z" fill="#6D9BFF"/>
<path d="M29.2409 33.0943C30.0723 32.865 32.8534 31.3167 33.8855 29.9404C34.9176 28.5642 35.2043 27.0159 35.2043 27.0159C35.2043 27.0159 36.1791 28.5928 36.2938 29.5963C36.4085 30.5999 34.0575 35.4741 33.6275 36.8217C33.6275 36.8217 32.882 36.6783 31.5059 35.5028C30.1297 34.3272 29.2409 33.0943 29.2409 33.0943Z" fill="#2C5CFF"/>
<path d="M25.3424 27.4175C25.3424 27.4175 24.8837 28.1056 25.9158 29.7973C26.948 31.4889 29.2129 33.1232 29.2129 33.1232L25.5431 36.6785C25.5431 36.6785 24.683 34.5568 24.1669 32.7218C23.6509 30.8868 23.7369 28.9371 23.9949 28.3637C24.2816 27.8189 25.3424 27.4175 25.3424 27.4175Z" fill="#2C5CFF"/>
<path d="M30.3298 40.9793C30.3012 41.5241 29.8425 41.8968 29.2977 41.8682C28.753 41.8395 28.3803 41.3807 28.409 40.836C28.4376 40.2912 28.8963 39.9184 29.4411 39.9471C29.9858 39.9758 30.3872 40.4345 30.3298 40.9793Z" fill="#2C5CFF"/>
<path d="M29.5849 51.3016C29.5562 51.8463 29.0975 52.2191 28.5527 52.1904C28.008 52.1617 27.6353 51.703 27.664 51.1582C27.6926 50.6134 28.1514 50.2407 28.6961 50.2694C29.2408 50.298 29.6422 50.7568 29.5849 51.3016Z" fill="#2C5CFF"/>
<path d="M34.4015 44.7929C36.7811 44.9936 39.3901 45.2803 40.3936 45.1656V46.6852C40.3936 46.6852 38.0139 46.4272 35.921 46.4272C32.9393 46.4272 32.9393 46.4272 32.9393 46.4272L33.1973 44.7929C33.1973 44.7929 33.1686 44.7069 34.4015 44.7929Z" fill="#2C5CFF"/>
<path d="M57.366 61.0214C57.366 61.0214 54.6997 59.5591 52.5494 58.5842C50.3991 57.6094 47.274 59.3584 47.274 59.3584C47.274 59.3584 46.9013 58.3549 46.3566 57.0933C45.8119 55.7744 45.1238 54.1688 44.493 52.9932C44.149 52.3051 43.8336 51.789 43.5756 51.531C42.4861 50.3841 42.6008 49.0365 42.2854 48.3771C42.2854 48.3484 42.2567 48.3197 42.2567 48.291C42.0274 47.4309 42.6295 43.9329 43.2889 40.7503C43.977 37.4531 44.8944 32.3208 44.8944 32.3208C45.2098 32.6075 46.2993 32.8656 46.8727 33.5537C46.8727 33.5537 50.7718 39.4601 52.406 43.5315C55.3878 50.9289 55.8752 52.4485 56.3625 55.1723C56.9073 57.8675 57.366 61.0214 57.366 61.0214Z" fill="#6D9BFF"/>
<path d="M49.081 55.2871C49.081 55.2871 46.9307 56.95 43.949 57.8675C40.6806 58.871 38.6737 59.1864 38.6737 59.1864C38.6737 59.1864 38.9031 61.8816 38.9891 64.6914C38.9891 64.6914 46.1566 65.8096 50.8299 64.9208C55.5031 64.0033 56.6786 64.1753 57.4527 62.1396C58.2268 60.1039 56.9367 56.1186 56.3346 54.3696C55.7325 52.5919 51.9767 53.9682 49.081 55.2871Z" fill="#6D9BFF"/>
<path d="M37.8129 59.1579C38.587 60.1901 38.5583 61.7384 38.759 63.8888C38.9023 65.3798 38.3863 65.3511 38.3863 65.3511L42.3141 65.2364C42.3141 65.2364 42.7442 62.9713 42.1421 60.8782C41.5113 58.7852 41.5113 58.7852 41.5113 58.7852L37.8129 59.1579Z" fill="#2C5CFF"/>
</g>
</svg>
