<svg width="182" height="227" viewBox="0 0 182 227" fill="none" xmlns="http://www.w3.org/2000/svg" id="illustration_girl">
<path d="M41.7708 1.34412C51.6913 -0.766155 62.0278 2.23938 69.3882 9.20969C72.6203 12.2792 76.1726 16.148 79.4367 20.7203C87.5331 32.0071 72.0443 43.198 74.0924 47.0029C76.1405 50.8397 80.9408 53.8452 78.8287 61.8387C76.7486 69.8322 62.9558 80.1918 58.4756 80.6394C12.9373 85.3076 -6.80774 60.2401 8.39304 46.7151C23.5938 33.1901 17.4175 13.5901 29.7702 5.98034C33.6104 3.61427 37.8026 2.20742 41.7708 1.34412Z" fill="#233862"/>
<path d="M64.9394 71.2708C64.9394 71.2708 107.822 89.9436 115.598 89.5918C123.374 89.2401 171.345 75.0117 171.345 75.0117L170.129 83.261C170.129 83.261 133.103 104.524 120.174 105.739C107.437 106.922 63.8834 94.324 59.6592 91.6382C55.435 88.9524 52.7149 73.9566 64.9394 71.2708Z" fill="#FDB888"/>
<path d="M70.1235 91.6705C66.3473 94.2924 61.6431 96.4346 55.7228 97.8095C33.5137 102.925 25.0012 84.1886 21.8011 71.3032C24.8412 69.5766 27.6894 69.1929 29.3215 69.001C30.9215 68.8092 32.6176 68.6813 34.0257 68.6173C36.5218 66.6989 40.234 58.8973 41.066 46.7472L42.1221 47.035L59.6269 51.831C59.6269 51.831 58.8269 57.3945 58.4429 62.6382C58.1549 66.7628 58.0909 70.6956 58.8589 71.6549C60.235 71.9426 61.035 72.1345 61.035 72.1345C61.035 72.1345 61.035 72.1345 61.035 72.1664C61.259 72.5181 66.3473 80.8633 70.1235 91.6705Z" fill="#FFB27D"/>
<path d="M59.595 51.7986C59.595 51.7986 58.795 57.3621 58.411 62.6058C48.4905 61.6146 43.8822 52.1823 42.0901 47.0026L59.595 51.7986Z" fill="#ED985F"/>
<path d="M62.5708 57.0108C62.5708 57.0108 39.0176 55.6999 40.0416 41.0878C41.0657 26.4437 38.7295 16.4359 53.8023 16.6277C68.8751 16.8515 71.4032 22.6388 72.2353 27.5948C73.0993 32.5507 68.7151 56.9788 62.5708 57.0108Z" fill="#FFB27D"/>
<path d="M72.1716 19.4094C68.8435 14.7413 66.0274 15.5086 64.3953 16.7236C52.0427 8.73017 43.0183 18.5781 43.0183 18.5781C40.6822 28.9696 32.6818 34.4371 32.6818 34.4371C32.6818 34.4371 36.842 37.7624 46.8585 35.5562C59.6271 32.7105 64.0113 21.6476 64.6193 19.953C65.9634 21.3598 67.6915 22.2231 69.0355 25.2607C70.6036 28.8417 71.5956 30.92 71.6276 36.8032C71.5956 36.8032 77.1319 26.4117 72.1716 19.4094Z" fill="#233862"/>
<path d="M15.0809 139.503C12.9688 128.632 6.02444 85.2436 12.9688 71.271C15.4649 66.2511 25.2253 65.8034 35.9458 66.2511C39.274 68.3933 51.9786 76.5467 57.2269 75.5235C57.2909 75.5235 57.3869 75.4916 57.5149 75.4596C59.979 74.8521 60.9071 73.1255 58.859 71.6227C58.859 71.6227 64.1712 71.1111 70.7635 72.3581C74.4757 73.0615 84.5242 78.2413 84.5242 78.2413C84.5242 78.2413 79.4679 87.3858 72.0115 90.5193C73.2916 101.87 71.4035 106.858 59.627 133.045C49.6745 155.171 60.9711 175.122 60.9711 175.122C60.9711 175.122 2.40827 222.156 2.08825 198.207C1.83224 180.174 17.801 153.38 15.0809 139.503Z" fill="white"/>
<path d="M63.8509 226.249C67.0511 225.897 69.8992 224.138 71.6913 221.484C71.9793 221.069 72.2673 220.621 72.5873 220.11C79.2436 210.038 81.8358 179.151 96.8445 146.25C100.493 138.256 113.613 136.818 117.165 127.737C117.165 127.737 125.966 98.385 100.333 97.5217C74.6994 96.6584 31.6893 179.151 30.9853 187.816C30.3453 196.257 14.0565 231.876 63.8509 226.249Z" fill="#FDCD51"/>
<path d="M165.744 225.577H129.262C129.262 225.577 127.886 219.758 130.286 215.793C132.399 212.308 131.598 210.293 130.03 207.416C131.694 208.087 133.807 208.695 136.175 208.567C137.999 208.471 139.919 207.64 141.615 206.648C143.183 208.439 149.903 216.049 152.015 217.551C154.384 219.31 165.008 218.67 165.744 225.577Z" fill="#233862"/>
<path d="M117.999 106.059C120.207 122.525 128.783 174.451 143.92 199.806C148.784 207.991 131.631 212.564 131.535 212.532C129.231 211.924 125.391 208.247 123.631 206.681C111.342 195.618 86.4131 164.283 86.4131 139.184C86.4131 126.938 86.1892 103.533 95.1176 97.5855C100.59 93.9085 117.135 99.5359 117.999 106.059Z" fill="#FDCD51"/>
<path d="M42.0901 225.577C42.0901 225.577 43.4341 223.691 45.8023 220.142C48.6184 215.889 51.7225 207.544 55.4667 196.833C59.4349 185.578 64.1072 171.765 69.9955 157.345C71.8196 152.9 73.7396 148.392 75.7877 143.916C79.4359 135.922 89.4844 137.009 93.0686 127.961C93.0686 127.961 107.021 96.5943 81.388 95.6991C55.7547 94.8358 7.04836 179.631 4.23223 187.848C1.16008 196.865 -13.8166 234.21 42.0901 225.577Z" fill="#FCE29E"/>
<path d="M138.959 225.577H102.477C102.477 225.577 101.101 219.758 103.501 215.793C105.613 212.308 104.813 210.293 103.245 207.416C104.909 208.087 107.021 208.695 109.389 208.567C111.213 208.471 113.134 207.64 114.83 206.648C116.398 208.439 123.118 216.049 125.23 217.551C127.598 219.31 138.223 218.67 138.959 225.577Z" fill="#2B478B"/>
<path d="M55.4666 196.833C59.4348 185.578 64.107 171.765 69.9953 157.345C68.4592 146.442 65.163 136.882 59.5948 133.045C59.5948 133.045 46.1222 174.771 55.4666 196.833Z" fill="#FFDB7D"/>
<path d="M96.7172 104.908C98.9253 121.374 101.997 174.483 117.134 199.806C121.998 207.991 104.846 212.564 104.75 212.532C102.445 211.924 98.6052 208.247 96.8451 206.681C84.5565 195.618 59.6273 164.283 59.6273 139.184C59.6273 126.938 74.028 104.524 82.9244 98.5768C88.3967 94.8998 95.8211 98.353 96.7172 104.908Z" fill="#FCE29E"/>
<path d="M175.696 53.8131L138.319 49.8484C137.231 49.7205 136.207 50.36 135.823 51.3831L122.446 86.4905C121.87 88.0252 122.958 89.6879 124.59 89.7518L161.68 91.2546C162.672 91.2865 163.6 90.711 164.016 89.7838L177.681 57.1704C178.289 55.6357 177.296 53.973 175.696 53.8131Z" fill="#233862"/>
<path d="M178.928 54.1331L141.55 50.1683C140.462 50.0404 139.438 50.6799 139.054 51.7031L125.678 86.8105C125.102 88.3452 126.19 90.0079 127.822 90.0718L164.911 91.5746C165.903 91.6065 166.832 91.031 167.248 90.1038L180.912 57.4904C181.52 55.9876 180.528 54.293 178.928 54.1331Z" fill="#2B478B"/>
<path d="M158.223 70.5359C158.671 69.2889 158.031 68.2657 156.783 68.2657C155.534 68.2657 154.126 69.2889 153.678 70.5359C153.23 71.7828 153.87 72.806 155.118 72.806C156.367 72.806 157.775 71.7828 158.223 70.5359Z" fill="#EBF3FA"/>
<path d="M177.808 57.4582C178.032 56.8507 177.712 56.3391 177.104 56.3391C176.496 56.3391 175.792 56.8507 175.568 57.4582C175.344 58.0657 175.664 58.5773 176.272 58.5773C176.912 58.5773 177.584 58.0657 177.808 57.4582Z" fill="#EBF3FA"/>
<path d="M21.8013 71.2708C21.8013 71.2708 73.5799 90.3272 81.3562 89.9435C86.3805 89.6877 128.206 75.0117 128.206 75.0117L131.951 82.1099C131.951 82.1099 91.2767 108.233 80.0762 108.105C57.9951 107.849 20.7133 94.292 16.5211 91.6382C12.3289 88.9843 9.57674 73.9566 21.8013 71.2708Z" fill="#FFB27D"/>
<path d="M128.206 75.0119C128.206 75.0119 131.95 69.2566 135.695 69.0648C139.439 68.9049 145.871 71.6226 148.079 72.0383C150.287 72.454 156.56 74.5003 154.703 77.5698C152.847 80.6393 144.175 81.3108 140.431 80.6393C136.687 79.9678 131.95 82.1421 131.95 82.1421L128.206 75.0119Z" fill="#FFB27D"/>
<path d="M134.671 69.2567C134.671 69.2567 140.623 66.5389 142.319 66.0273C144.015 65.5157 143.663 66.0273 143.183 67.658C142.671 69.2567 139.631 70.7914 139.631 71.303C139.631 71.8146 134.671 69.2567 134.671 69.2567Z" fill="#FFB27D"/>
<path d="M175.089 71.9426C175.089 71.9426 171.344 66.0274 170.128 65.7716C166.384 65.0362 166.384 69.9602 167.184 73.1256C168.048 76.5148 170.928 79.7442 171.696 79.4564C172.496 79.2006 175.953 75.076 175.089 71.9426Z" fill="#FFB27D"/>
<path d="M175.217 73.1256C175.217 73.1256 176.401 79.7762 170.096 83.2294L171.953 78.6571L175.217 73.1256Z" fill="#FFB27D"/>
<path d="M66.9878 48.6013C66.9878 48.6013 64.7476 47.706 58.5073 48.2176C58.5073 48.2176 58.8273 50.6476 63.4676 50.9034C66.0597 51.0313 66.9878 48.6013 66.9878 48.6013Z" fill="white"/>
<path d="M48.4588 80.6712C48.4588 80.6712 43.8185 95.3153 27.9138 98.6406C27.9138 98.6406 1.64051 90.5511 14.7291 72.6777C14.7291 72.6777 27.6898 63.0856 48.4588 80.6712Z" fill="white"/>
</svg>
