<svg width="54" height="54" viewBox="0 0 54 54" fill="none" xmlns="http://www.w3.org/2000/svg" id="illustration_middle_avatar_girl">
<path d="M0.700867 26.7716C0.700867 34.4134 3.93304 41.2878 9.08529 46.1478C13.8535 50.6242 20.2538 53.3739 27.3262 53.3739C27.9022 53.3739 28.4782 53.3419 29.0222 53.31C35.6785 52.8943 41.6948 50.0166 46.143 45.5723C46.7191 44.9967 47.2951 44.3892 47.8071 43.7498C48.6392 42.7586 49.4072 41.7034 50.0792 40.5843C52.5434 36.5556 53.9514 31.8235 53.9514 26.7716C53.9514 19.4176 50.9753 12.767 46.143 7.97095C41.3108 3.17487 34.6865 0.169312 27.3262 0.169312C19.9658 0.169312 13.3095 3.14289 8.50925 7.97095C3.70902 12.799 0.700867 19.4496 0.700867 26.7716Z" fill="white"/>
<path d="M11.8691 38.8257C12.3492 39.1454 12.8612 39.4332 13.4372 39.625C17.5974 43.2381 24.1898 49.0573 29.022 53.3099C35.6783 52.8942 41.6947 50.0165 46.1429 45.5722C46.7189 44.9966 47.295 44.3891 47.807 43.7497C48.639 42.7585 49.4071 41.7033 50.0791 40.5842C49.5031 39.5611 48.831 38.5379 47.999 37.5148C43.7108 31.9833 40.2226 30.0968 41.1826 22.9666C41.6947 19.0978 39.1985 5.38095 30.3021 4.67752C29.566 4.61358 25.0538 3.84622 21.7896 4.77346C13.8852 6.91571 2.78067 32.5588 11.8691 38.8257Z" fill="#233862"/>
<path d="M21.0864 37.2914C21.0544 37.2914 24.7986 39.5616 27.7427 38.9541C30.5269 38.3785 33.3751 34.6056 33.3111 34.6056C32.159 34.3178 31.1029 33.0069 31.583 26.1644L31.039 26.2284L22.1104 27.4114C22.1104 27.4114 22.1424 30.1931 21.9824 32.815C21.8864 35.0212 21.5984 37.0995 21.0864 37.2914Z" fill="#FFB27D"/>
<path d="M22.142 27.4436C22.142 27.4436 22.174 30.2253 22.014 32.8471C26.9423 33.007 29.8544 28.6905 31.0705 26.2605L22.142 27.4436Z" fill="#ED975D"/>
<path d="M20.3501 29.8094C20.3501 29.8094 31.9986 30.7366 32.4786 23.4785C32.9586 16.2204 34.7507 11.4563 27.3264 10.529C19.9021 9.63378 18.27 12.3196 17.534 14.6857C16.7979 17.0837 17.3099 29.3617 20.3501 29.8094Z" fill="#FFB27D"/>
<path d="M18.7816 10.9131C18.7816 10.9131 24.6699 18.7148 29.5022 20.2816C34.3344 21.8483 36.5425 20.6653 36.5425 20.6653C36.5425 20.6653 34.1424 17.6277 33.2464 13.3432C32.9904 12.0962 32.0623 11.073 30.8143 10.6893C27.3901 9.66616 20.7337 8.06743 18.7816 10.9131Z" fill="#233862"/>
<path d="M23.4219 11.3604C23.4219 11.3604 20.4778 13.1829 19.3578 14.7496C18.2697 16.2524 17.1817 20.2491 17.4057 21.9438C17.4057 21.9438 15.2296 13.7904 18.1417 10.6889C21.2138 7.39561 23.4219 11.3604 23.4219 11.3604Z" fill="#233862"/>
<path d="M9.08551 46.1481C13.8537 50.6244 20.254 53.3742 27.3264 53.3742H29.0865C29.0545 53.3422 29.0544 53.3422 29.0224 53.3103C35.6788 52.8946 41.6951 50.0169 46.1433 45.5725C46.7193 44.997 47.2953 44.3895 47.8074 43.75C46.8793 41.7356 45.9833 40.1049 45.2472 39.0498C41.9511 34.4455 32.4146 33.87 32.4146 33.87C32.3826 33.87 32.3826 33.902 32.3506 33.902C28.7344 36.0442 26.3343 36.7157 24.7663 36.7157C22.4622 36.7157 21.9181 35.2449 21.8221 34.8932C21.8221 34.8292 21.8221 34.8292 21.8221 34.8292C21.8221 34.8292 14.9418 35.9803 11.8696 38.8579C11.2296 39.4655 10.7496 40.1369 10.5576 40.8723C10.3016 41.7996 9.75754 43.718 9.08551 46.1481Z" fill="#FCE29E"/>
</svg>
