<svg width="273" height="451" viewBox="0 0 273 451" fill="none" xmlns="http://www.w3.org/2000/svg" id="illustration_mobile_phone">
<path d="M168.901 27.274H104.802C95.2977 27.274 87.6172 19.6003 87.6172 10.104H186.086C186.054 19.6003 178.374 27.274 168.901 27.274Z" fill="#2B478B"/>
<path d="M250.568 450.577H23.069C10.8124 450.577 0.859863 440.089 0.859863 427.204V23.7887C0.859863 10.9032 10.8124 0.415771 23.069 0.415771H250.568C262.825 0.415771 272.777 10.9032 272.777 23.7887V427.204C272.777 440.089 262.825 450.577 250.568 450.577ZM23.069 10.1039C15.9006 10.1039 10.0763 16.2429 10.0763 23.7887V427.204C10.0763 434.749 15.9006 440.888 23.069 440.888H250.568C257.736 440.888 263.561 434.749 263.561 427.204V23.7887C263.561 16.2429 257.736 10.1039 250.568 10.1039H23.069Z" fill="#2B478B"/>
<path d="M249.385 445.588H17.2135C10.5892 445.588 5.18091 440.217 5.18091 433.598V417.323H268.458V426.532C268.458 437.051 259.913 445.588 249.385 445.588Z" fill="#2B478B"/>
</svg>
