<svg width="191" height="114" viewBox="0 0 191 114" fill="none" xmlns="http://www.w3.org/2000/svg" id="illustration_top_man_comp">
<g clip-path="url(#clip0_1_1572)">
<path d="M182.889 96.6099H0.537292V113.995H182.889V96.6099Z" fill="white"/>
<path d="M97.2811 72.611C97.2811 72.611 94.7764 75.1583 92.2717 78.0185C91.1983 79.1805 90.1695 80.4318 89.275 81.5491C86.2783 85.3031 83.4605 86.3757 80.1507 90.0403C78.0933 92.3195 75.4097 94.0625 70.4003 94.8669C65.3909 95.6713 47.0528 96.9674 47.0528 96.9674C47.0528 96.9674 46.6056 94.5541 46.9186 93.7496C47.0081 93.5262 46.7845 93.0793 46.4714 92.4536C45.6663 90.8447 44.3245 88.3868 46.9186 88.0739C50.4521 87.6717 67.6719 83.5155 68.477 82.2641C69.2821 81.0128 73.9337 75.2477 76.4384 70.0189C78.9431 64.7901 82.7002 58.3993 86.5467 52.1426C89.9012 46.6457 90.8852 46.3775 92.6743 44.7687L94.7764 57.5502L97.2811 72.611Z" fill="#6D9BFF"/>
<path d="M38.6444 96.4312H26.3893V95.895C26.3893 92.5432 29.1176 89.7723 32.5169 89.7723C35.8714 89.7723 38.6444 92.4985 38.6444 95.895V96.4312Z" fill="#A5A5A5"/>
<path d="M39.0472 89.4596C38.0632 89.1021 35.0665 87.672 33.4563 87.672C31.8462 87.672 29.1626 90.3981 27.6418 91.7388C26.1211 93.0796 28.2233 94.3309 29.4309 93.7052C30.6833 93.0796 31.8462 91.5154 33.0091 91.5601C34.172 91.6048 34.7087 92.6327 35.3349 92.8561C35.648 92.9455 35.8269 93.8393 35.2454 94.2415C34.6192 94.6884 33.2327 94.6884 32.8749 94.9119C32.1145 95.4035 32.6065 96.6995 33.9036 96.6995C35.2007 96.6995 36.2741 96.8336 37.8396 96.5207C39.3603 96.2079 41.2835 96.6548 42.4464 96.1632C43.6541 95.6716 47.0086 96.8783 47.0086 96.8783L44.5933 90.3087C44.5933 90.3981 40.9704 90.2194 39.0472 89.4596Z" fill="#FDD2BB"/>
<path d="M39.9418 89.4596C40.2102 90.4428 40.8364 91.1132 41.3284 92.6326C42.4465 95.8951 41.0153 96.5207 41.0153 96.5207C41.0153 96.5207 47.277 96.9676 48.3952 96.5207C48.3952 96.5207 49.9159 94.8225 48.3952 91.4707C46.8745 88.1189 46.8745 88.1189 46.8745 88.1189C46.8745 88.1189 45.9352 88.1189 43.1622 88.5211C40.8811 88.8339 39.9418 89.4596 39.9418 89.4596Z" fill="#2C5CFF"/>
<path d="M127.428 22.7811C127.428 22.7811 126.175 26.4458 126.041 29.6188C125.907 32.7918 125.907 37.1715 126.846 38.8698C127.786 40.568 137.581 46.2884 137.581 46.2884C137.581 46.2884 126.444 48.6123 115.441 47.942C104.438 47.2716 102.068 42.6238 102.068 42.6238C102.068 42.6238 110.432 39.3614 110.655 38.5122C110.879 37.6631 112.489 31.3617 112.489 31.3617L127.428 22.7811Z" fill="#F6C1AA"/>
<path opacity="0.28" d="M126.623 38.2888C125.952 36.3224 125.952 32.479 126.041 29.6188C126.175 26.4458 127.428 22.7811 127.428 22.7811L112.534 31.2724C112.534 31.2724 110.923 37.6184 110.7 38.4229C110.476 39.272 102.112 42.5344 102.112 42.5344C102.112 42.5344 102.202 42.7132 102.425 42.9813C110.521 41.6406 118.572 39.987 126.623 38.2888Z" fill="#EB9271"/>
<path d="M108.017 22.0216C108.375 19.3848 108.465 9.77633 108.465 9.77633L121.301 5.26257L132.528 11.5193C132.528 11.5193 129.844 20.0105 129.799 22.6919C129.755 25.3734 129.576 28.9486 127.876 31.496C126.221 34.0434 121.838 38.0208 120.809 38.5124C117.723 39.9425 115.71 38.9593 113.385 37.6186C112.401 37.0376 111.059 34.1328 109.762 31.3619C108.42 28.5911 107.659 24.6583 108.017 22.0216Z" fill="#FDD2BB"/>
<path d="M128.144 15.3625C128.144 15.3625 128.189 18.8037 129.083 21.0382C129.262 21.4851 129.128 22.8258 128.949 24.4347C129.396 23.8984 129.888 23.4068 130.336 22.9152C131.275 21.932 132.125 20.9488 132.93 19.9209C133.422 17.9545 134.272 15.3178 134.227 13.7983C134.137 9.19516 134.137 6.64779 125.729 2.53625C124.119 1.77651 120.853 -0.368642 119.199 0.257028C116.694 1.19553 115.978 2.08935 114.01 3.7429C114.01 3.7429 111.371 3.20661 108.062 6.78187C106.138 8.88233 106.72 11.9213 106.809 14.2005C107.033 18.8483 108.285 18.5802 108.285 18.5802C108.464 16.2116 108.062 15.2284 108.777 11.6532C109.001 10.4465 110.79 10.0443 112.042 9.77614C113.205 9.508 113.608 9.06109 117.499 12.9492C119.825 15.2731 121.077 15.0943 128.144 15.3625Z" fill="#5C3000"/>
<path d="M128.457 22.6024C129.084 20.2784 130.068 18.5802 131.141 18.6249C132.17 18.7143 133.243 20.636 131.946 22.8258C130.649 25.0156 129.799 26.3564 129.084 27.2055C128.368 28.144 128.055 24.0771 128.457 22.6024Z" fill="#FDD2BB"/>
<path d="M129.083 22.8704C129.441 21.6191 130.023 20.0549 130.962 20.1443C131.901 20.2337 132.035 21.2616 130.738 23.0492C129.441 24.7921 129.173 25.7306 129.173 25.7306C129.173 25.7306 128.904 23.5855 129.083 22.8704Z" fill="#EB9271"/>
<path d="M117.856 69.8404C116.469 77.9741 115.843 97.9508 112.399 96.4313C110.521 95.5822 104.706 95.6269 99.7863 95.8056C95.7608 95.9844 92.4063 96.2525 92.4063 96.2525C92.4063 96.2525 92.1827 87.225 92.2721 78.0187C92.3169 73.5944 92.4063 69.17 92.6747 65.6394C92.7641 64.4775 92.8089 63.3602 92.8536 62.2876C93.1667 51.9641 91.4671 45.9755 92.6747 44.8136C94.0165 43.5176 109.626 39.5848 110.387 37.7078L111.549 43.2047C114.412 47.7632 118.124 46.3778 118.124 46.3778C118.124 46.3778 119.242 61.7067 117.856 69.8404Z" fill="#6D9BFF"/>
<path d="M114.188 47.8971C113.428 52.4109 113.249 55.9415 111.952 64.6114C110.655 73.2814 111.281 76.8567 110.699 82.3089C110.118 87.7612 109.044 95.8502 109.044 95.8502L118.392 97.2356C118.392 97.2356 118.705 81.5939 119.197 70.6C119.689 59.6061 121.523 49.8188 121.523 49.8188L122.776 43.1152C122.776 43.1152 119.332 46.7799 115.753 46.4223C112.131 45.9754 114.188 47.8971 114.188 47.8971Z" fill="#2C5CFF"/>
<path d="M142.143 54.3773C141.785 57.7291 143.351 61.8854 142.635 66.5779C142.143 69.7062 141.517 73.5049 140.846 77.3036C139.907 82.7112 140.443 96.3865 140.443 96.3865C140.443 96.3865 119.109 95.6268 115.486 96.6547C111.908 97.6379 114.144 77.7952 113.92 69.5275C113.697 61.2597 117.051 46.333 117.051 46.333C117.051 46.333 119.824 46.333 124.073 43.0259C126.712 41.0148 127.159 38.3334 127.159 38.3334C127.651 40.2551 142.188 44.6348 143.351 46.1542C143.53 46.3777 143.664 46.8246 143.753 47.4056C143.887 48.8804 142.456 51.249 142.143 54.3773Z" fill="#6D9BFF"/>
<path d="M117.006 46.3329C118.303 45.9754 122.641 43.5621 124.251 41.417C125.862 39.2718 126.309 36.8585 126.309 36.8585C126.309 36.8585 127.83 39.3165 128.008 40.8807C128.187 42.4449 124.52 50.0423 123.849 52.1427C123.849 52.1427 122.686 51.9193 120.539 50.087C118.392 48.2546 117.006 46.3329 117.006 46.3329Z" fill="#2C5CFF"/>
<path d="M110.923 37.4841C110.923 37.4841 110.208 38.5567 111.818 41.1935C113.428 43.8302 116.961 46.3776 116.961 46.3776L111.236 51.9192C111.236 51.9192 109.895 48.6121 109.089 45.7519C108.284 42.8917 108.419 39.8527 108.821 38.9589C109.268 38.1098 110.923 37.4841 110.923 37.4841Z" fill="#2C5CFF"/>
<path d="M118.705 58.6229C118.66 59.472 117.945 60.053 117.095 60.0083C116.245 59.9636 115.664 59.2485 115.708 58.3994C115.753 57.5503 116.469 56.9693 117.319 57.014C118.168 57.0587 118.795 57.7737 118.705 58.6229Z" fill="#2C5CFF"/>
<path d="M117.543 74.7117C117.498 75.5609 116.782 76.1418 115.933 76.0972C115.083 76.0525 114.501 75.3374 114.546 74.4883C114.591 73.6392 115.306 73.0582 116.156 73.1029C117.006 73.1476 117.632 73.8626 117.543 74.7117Z" fill="#2C5CFF"/>
<path d="M116.379 90.7556C116.335 91.6047 115.619 92.1857 114.769 92.141C113.919 92.0963 113.338 91.3812 113.383 90.5321C113.427 89.683 114.143 89.102 114.993 89.1467C115.843 89.2361 116.469 89.9511 116.379 90.7556Z" fill="#2C5CFF"/>
<path d="M125.057 64.5665C128.769 64.8794 132.839 65.3263 134.404 65.1475V67.5161C134.404 67.5161 130.692 67.1139 127.427 67.1139C122.775 67.1139 122.775 67.1139 122.775 67.1139L123.178 64.5665C123.178 64.5665 123.133 64.4325 125.057 64.5665Z" fill="#2C5CFF"/>
<path d="M95.8947 94.0624H75.4098V96.431H95.8947V94.0624Z" fill="#E9EBEE"/>
<path d="M122.239 94.0624H95.8504V96.431H122.239V94.0624Z" fill="#E9EBEE"/>
<path d="M97.2818 93.0341V94.062H98.5342H100.949V93.0341H98.5342H97.2818Z" fill="#D5D5D7"/>
<path d="M92.6743 93.0341V94.062H93.9266H96.3419V93.0341H93.9266H92.6743Z" fill="#D5D5D7"/>
<path d="M88.0673 93.0341V94.062H89.3197H91.7349V93.0341H89.3197H88.0673Z" fill="#D5D5D7"/>
<path d="M83.4604 93.0341V94.062H84.7127H87.128V93.0341H84.7127H83.4604Z" fill="#D5D5D7"/>
<path d="M117.274 93.0341H115.977V94.062H117.274H119.645V93.0341H117.274Z" fill="#D5D5D7"/>
<path d="M111.37 93.0341V94.062H112.667H115.038V93.0341H112.667H111.37Z" fill="#D5D5D7"/>
<path d="M106.763 93.0341V94.062H108.06H110.431V93.0341H108.06H106.763Z" fill="#D5D5D7"/>
<path d="M102.156 93.0341V94.062H103.453H105.824V93.0341H103.453H102.156Z" fill="#D5D5D7"/>
<path d="M78.8533 93.0344V94.0623H80.1056H82.5209V93.0344H80.1056H78.8533Z" fill="#D5D5D7"/>
<path d="M82.029 29.4398H9.70565C8.54275 29.4398 7.64821 30.3783 7.78239 31.585L12.8365 80.5213C12.9707 81.6832 13.9994 82.6664 15.2071 82.6664H87.5304C88.6934 82.6664 89.5879 81.7279 89.4537 80.5213L84.3996 31.585C84.2654 30.3783 83.1919 29.4398 82.029 29.4398Z" fill="#FAFCFF"/>
<path d="M82.029 29.4398H9.70565C8.54275 29.4398 7.64821 30.3783 7.78239 31.585L12.8365 80.5213C12.9707 81.6832 13.9994 82.6664 15.2071 82.6664H87.5304C88.6934 82.6664 89.5879 81.7279 89.4537 80.5213L84.3996 31.585C84.2654 30.3783 83.1919 29.4398 82.029 29.4398Z" fill="#6B6B6B"/>
<path d="M80.6881 29.4401H8.36478C7.20188 29.4401 6.30734 30.3786 6.39679 31.5852L10.7353 80.5215C10.8248 81.6835 11.8982 82.6667 13.0611 82.6667H85.3845C86.5474 82.6667 87.4419 81.7282 87.3525 80.5215L83.0139 31.5852C82.9245 30.3786 81.8511 29.4401 80.6881 29.4401Z" fill="#D5D5D7"/>
<path d="M68.5225 78.6891C68.0752 78.6891 67.6279 78.3316 67.5832 77.84L67.2254 73.8179C67.1807 73.371 67.5385 72.9688 67.9858 72.9688C68.433 72.9688 68.8803 73.3263 68.925 73.8179L69.2828 77.84C69.3276 78.3316 69.0145 78.6891 68.5225 78.6891Z" fill="#E9EBEE"/>
<path d="M71.2055 78.6885C70.7583 78.6885 70.311 78.331 70.2663 77.8394L69.9084 73.8173C69.8637 73.3704 70.2215 72.9681 70.6688 72.9681C71.1161 72.9681 71.5633 73.3257 71.6081 73.8173L71.9659 77.8394C72.0106 78.331 71.6975 78.6885 71.2055 78.6885Z" fill="#E9EBEE"/>
<path d="M73.8894 78.6885C73.4422 78.6885 72.9949 78.331 72.9502 77.8394L72.5923 73.8173C72.5476 73.3704 72.9054 72.9681 73.3527 72.9681C73.8 72.9681 74.2472 73.3257 74.292 73.8173L74.6498 77.8394C74.6945 78.331 74.3367 78.6885 73.8894 78.6885Z" fill="#E9EBEE"/>
<path d="M76.5733 78.6885C76.126 78.6885 75.6787 78.331 75.634 77.8394L75.2762 73.8173C75.2315 73.3704 75.5893 72.9681 76.0365 72.9681C76.4838 72.9681 76.9311 73.3257 76.9758 73.8173L77.3336 77.8394C77.3784 78.331 77.0205 78.6885 76.5733 78.6885Z" fill="#E9EBEE"/>
<path d="M79.2566 78.6885C78.8093 78.6885 78.362 78.331 78.3173 77.8394L77.9595 73.8173C77.9147 73.3704 78.2726 72.9681 78.7198 72.9681C79.1671 72.9681 79.6144 73.3257 79.6591 73.8173L80.0169 77.8394C80.0616 78.331 79.7038 78.6885 79.2566 78.6885Z" fill="#E9EBEE"/>
<path d="M63.7359 94.7329H53.6724V96.6099L63.7359 96.9228V94.7329Z" fill="#6B6B6B"/>
<path d="M49.9157 86.2416L52.4651 56.0754H41.4176L36.6318 85.9288C35.9609 89.37 37.0344 93.0346 39.1812 94.6882L41.6412 96.6099H55.2829L55.0593 94.7329C51.0786 93.2134 49.4684 89.5488 49.9157 86.2416Z" fill="#6B6B6B"/>
<path d="M48.3051 86.2421L50.8545 56.0759H39.807L35.0212 85.9293C34.3503 89.3705 35.4238 93.0351 37.5707 94.6887L40.0306 96.6104H53.6723L50.944 94.5099C48.9313 92.9457 47.8578 89.5492 48.3051 86.2421Z" fill="#A5A5A5"/>
<path d="M48.529 90.4872H35.0662C35.4687 92.2301 36.3632 93.7943 37.5261 94.6881L39.9861 96.6098H53.6278L50.8995 94.5093C49.826 93.6155 48.9762 92.1854 48.529 90.4872Z" fill="#6B6B6B"/>
<path d="M160.884 89.8619C160.884 89.8619 156.724 87.5827 153.369 86.0632C150.015 84.5438 145.14 87.2699 145.14 87.2699C145.14 87.2699 144.558 85.7057 143.708 83.7393C142.859 81.6836 141.785 79.1809 140.801 77.3486C140.264 76.276 139.772 75.4716 139.37 75.0693C137.67 73.2817 137.849 71.1813 137.357 70.1534C137.357 70.1087 137.312 70.064 137.312 70.0193C136.955 68.6786 137.894 63.2263 138.923 58.2656C139.996 53.1262 141.427 45.1266 141.427 45.1266C141.919 45.5735 143.619 45.9757 144.513 47.0483C144.513 47.0483 150.596 56.2546 153.146 62.6006C157.797 74.1308 158.558 76.4994 159.318 80.7451C160.168 84.946 160.884 89.8619 160.884 89.8619Z" fill="#6D9BFF"/>
<path d="M108.777 92.2307C112.355 91.5157 114.994 93.2586 117.23 93.3927C119.467 93.5268 127.473 92.6776 127.473 92.6776L125.684 88.5661C125.684 88.5661 116.559 88.3873 113.473 89.4152C110.387 90.4431 108.777 92.2307 108.777 92.2307Z" fill="#FDD2BB"/>
<path d="M127.517 87.9852C127.517 87.9852 122.776 87.1361 120.495 87.0914C116.649 87.002 112.31 87.002 111.416 87.717C110.521 88.4321 105.914 93.6609 105.288 94.5101C104.662 95.3592 104.975 96.3424 106.898 95.672C108.821 95.0016 111.997 91.337 113.92 90.4879C115.843 89.6388 119.422 90.3538 119.422 90.3538L126.533 89.6834L127.517 87.9852Z" fill="#FDD2BB"/>
<path opacity="0.28" d="M121.927 87.182C116.246 88.5674 110.7 90.4444 105.914 93.7068C105.601 94.0644 105.378 94.3772 105.243 94.5113C104.617 95.3604 104.93 96.3436 106.854 95.6732C108.777 95.0029 111.952 91.3382 113.876 90.4891C115.799 89.64 119.377 90.355 119.377 90.355L126.489 89.6847L127.473 87.9864C127.517 87.9864 124.342 87.4502 121.927 87.182Z" fill="#EB9271"/>
<path d="M122.777 88.164C122.777 88.164 116.157 87.7171 114.457 87.5383C112.713 87.3596 111.371 88.7897 110.432 90.4879C109.448 92.1862 107.48 95.1357 107.927 95.9849C108.33 96.8787 109.448 96.7893 110.342 95.8061C111.282 94.8229 112.489 92.3649 113.786 91.8733C115.084 91.3817 119.467 90.3538 119.467 90.3538L122.777 88.164Z" fill="#FDD2BB"/>
<path opacity="0.28" d="M114.547 89.2365C111.819 90.3984 109.404 96.7445 110.343 95.806C111.282 94.8228 112.49 92.3648 113.787 91.8732C115.084 91.3816 119.467 90.3538 119.467 90.3538L122.822 88.1192C122.822 88.1192 121.167 87.9851 119.288 87.8511C117.633 88.1639 116.068 88.6108 114.547 89.2365Z" fill="#EB9271"/>
<path d="M134.405 94.0631C134.405 94.0631 131.006 93.8396 129.798 95.0016C128.591 96.1635 127.383 96.6998 126.265 96.5658C125.102 96.4317 123.045 95.4038 122.105 94.8228C121.166 94.2418 118.125 96.2082 117.185 96.6551C116.202 97.1467 115.352 96.2976 115.799 95.2697C116.291 94.2418 117.275 93.2586 118.08 92.8564C118.885 92.4542 122.329 91.6051 122.329 91.6051H122.284H122.24C121.837 91.5604 120.272 91.3816 119.243 91.4263C118.08 91.5157 116.872 92.2308 115.754 93.6609C114.681 95.091 113.518 96.6998 112.892 96.968C112.713 97.0574 112.489 97.0127 112.31 96.7892C111.908 96.387 111.729 95.4932 112.266 94.3312C113.071 92.633 115.128 89.9515 116.202 88.6108C117.275 87.2701 118.885 87.136 120.451 87.0913C121.971 87.0467 125.549 87.0467 125.549 87.0467C125.549 87.0467 129.485 86.9573 131.677 86.9573C133.019 87.002 134.405 94.0631 134.405 94.0631Z" fill="#FDD2BB"/>
<path opacity="0.28" d="M131.722 87.002C131.23 87.002 130.693 87.002 130.112 87.002C130.156 89.7728 129.978 92.5436 129.53 95.2697C129.62 95.1803 129.709 95.091 129.843 95.0016C131.051 93.8396 134.45 94.0631 134.45 94.0631C134.45 94.0631 133.019 87.002 131.722 87.002Z" fill="#EB9271"/>
<path opacity="0.28" d="M122.329 91.5602H122.285H122.24C121.837 91.5155 120.272 91.3367 119.243 91.3814C118.08 91.4708 116.873 92.1858 115.755 93.6159C114.681 95.046 113.518 96.6549 112.892 96.923C112.713 97.0124 112.49 96.9677 112.311 96.7443C113.474 95.3142 114.681 93.1243 115.263 92.1411C116.157 90.6217 118.751 90.3535 119.422 90.3535C120.048 90.3535 122.329 91.5602 122.329 91.5602Z" fill="#EB9271"/>
<path d="M147.957 80.9238C147.957 80.9238 144.603 83.5158 139.951 84.9459C134.852 86.5101 131.721 87.0017 131.721 87.0017C131.721 87.0017 132.079 91.2026 132.213 95.5823C132.213 95.5823 143.395 97.3252 150.686 95.9398C157.976 94.5097 159.81 94.7779 161.018 91.6048C162.225 88.4318 160.213 82.2198 159.273 79.4937C158.334 76.7228 152.475 78.868 147.957 80.9238Z" fill="#6D9BFF"/>
<path d="M130.38 86.9572C131.588 88.5661 131.543 90.9794 131.856 94.3312C132.08 96.6551 131.275 96.6104 131.275 96.6104L137.402 96.4316C137.402 96.4316 138.073 92.9011 137.134 89.6386C136.15 86.3762 136.15 86.3762 136.15 86.3762L130.38 86.9572Z" fill="#2C5CFF"/>
<path d="M167.369 83.0682C167.503 82.1744 168.219 81.37 169.113 81.1019C169.784 80.9231 170.545 80.9678 171.037 80.4762C171.573 79.9399 171.35 79.0461 171.35 78.2863C171.35 76.7669 172.334 75.3368 173.765 74.8005C174.391 74.577 175.107 74.5323 175.599 74.0854C176.091 73.6385 176.27 72.9235 176.448 72.2531C176.94 70.5996 177.969 69.1694 179.311 68.0969C179.892 67.65 180.608 67.2924 181.279 67.4712C181.816 67.65 182.218 68.1416 182.352 68.6779C182.487 69.2141 182.397 69.7951 182.218 70.3314C181.503 72.3425 179.445 73.7726 178.998 75.873C178.774 76.9009 178.998 78.0182 178.774 79.0461C178.506 80.2527 177.656 81.2806 176.538 81.7722C176.001 81.9957 175.33 82.1297 174.972 82.6213C174.57 83.1576 174.704 83.9621 174.615 84.6324C174.436 86.1072 173.004 87.2245 171.529 87.3139C170.053 87.4032 168.621 86.5094 167.816 85.3028C167.727 85.3475 167.235 84.0068 167.369 83.0682Z" fill="#4BBD6D"/>
<path d="M174.212 81.6383C174.748 80.9679 174.838 80.0294 174.48 79.2697C174.212 78.7334 173.675 78.1971 173.72 77.6161C173.764 76.9457 174.48 76.5435 175.017 76.0519C176.045 75.1581 176.403 73.5492 175.866 72.2979C174.748 69.6165 177.164 67.2926 176.94 64.4324C176.895 63.8067 176.716 63.0916 176.135 62.7341C175.688 62.466 175.106 62.5107 174.659 62.7788C174.212 63.0023 173.898 63.4492 173.63 63.8961C172.87 65.3262 172.87 66.8456 172.378 68.3204C171.886 69.7059 170.723 70.4209 169.918 71.5829C169.292 72.4767 169.113 73.728 169.471 74.7559C169.649 75.2922 169.963 75.7838 169.828 76.3201C169.694 76.9457 169.113 77.3033 168.71 77.7949C167.86 78.8228 167.95 80.4763 168.8 81.5042C169.649 82.5321 171.125 82.979 172.423 82.7555C172.467 82.7555 173.675 82.2639 174.212 81.6383Z" fill="#44AB63"/>
<path d="M173.496 83.2919C173.407 82.5321 172.825 81.8171 172.065 81.5936C171.528 81.4149 170.857 81.4595 170.455 81.0126C170.052 80.521 170.231 79.806 170.276 79.1803C170.32 77.929 169.515 76.6776 168.308 76.2307C167.771 76.052 167.19 75.9626 166.787 75.6051C166.384 75.2029 166.25 74.6219 166.116 74.0856C165.714 72.7002 164.908 71.4488 163.79 70.555C163.343 70.1975 162.717 69.84 162.135 70.0187C161.688 70.1528 161.33 70.555 161.241 71.0019C161.107 71.4488 161.196 71.9404 161.33 72.3873C161.912 74.0856 163.611 75.3369 163.924 77.0799C164.103 77.9737 163.88 78.8675 164.059 79.7613C164.238 80.7445 164.953 81.6383 165.892 82.0852C166.34 82.3087 166.876 82.4427 167.19 82.845C167.503 83.3366 167.368 83.9622 167.458 84.5432C167.592 85.7499 168.755 86.733 169.963 86.8224C171.215 86.9118 172.423 86.2415 173.138 85.2136C173.094 85.1689 173.586 84.0516 173.496 83.2919Z" fill="#44AB63"/>
<path d="M165.803 79.359C165.624 78.7333 165.132 78.2417 164.909 77.6607C164.461 76.6328 164.73 75.4262 165.177 74.3536C165.535 73.5939 165.982 72.7894 165.937 71.985C165.892 71.4487 165.669 70.9571 165.49 70.4655C165.132 69.2589 165.177 67.9629 165.266 66.7115C165.311 65.9518 165.356 65.1473 165.669 64.477C165.982 63.7619 166.563 63.1363 167.324 63.0022C168.352 62.8234 169.381 63.6279 169.739 64.6111C170.142 65.5942 170.052 66.6668 169.918 67.6947C169.784 68.7226 169.65 69.7952 169.963 70.8231C170.276 71.985 171.126 72.8788 171.618 73.9961C172.199 75.3368 172.065 76.9904 171.349 78.2417C170.991 78.8674 170.455 79.4484 170.231 80.1634C169.784 81.6382 170.723 83.2024 170.902 84.7219C171.036 85.705 170.812 86.7776 170.142 87.4927C168.666 89.1909 166.206 88.029 165.669 86.1073C165.4 85.1241 165.087 83.8727 165.222 82.8448C165.356 81.6829 166.161 80.5656 165.803 79.359Z" fill="#4BBD6D"/>
<path d="M176.045 96.6096H166.205L162.94 80.7891H179.31L176.045 96.6096Z" fill="#D5D5D7"/>
<path d="M185.282 96.8994H-4.3595V103.022H185.282V96.8994Z" stroke="#D4DBF1" stroke-width="0.282631" stroke-miterlimit="10"/>
</g>
<defs>
<clipPath id="clip0_1_1572">
<rect width="190.089" height="113.827" fill="white" transform="translate(0.536987 0.143799)"/>
</clipPath>
</defs>
</svg>
