<svg width="28" height="17" viewBox="0 0 28 17" fill="none" xmlns="http://www.w3.org/2000/svg" id="illustration_wifi">
<path d="M16.6162 15.1166L13.9921 17.0031L11.3679 15.1486C11.944 14.3172 12.904 13.7737 13.9921 13.7737C15.0481 13.7737 16.0082 14.3172 16.6162 15.1166Z" fill="#2B478B"/>
<path d="M13.9925 9.20142C11.3683 9.20142 9.03222 10.5124 7.62415 12.4947L9.28825 13.6458C10.3443 12.175 12.0404 11.2158 13.9925 11.2158C15.9126 11.2158 17.6086 12.175 18.6647 13.6138L20.3288 12.4308C18.8887 10.4804 16.5846 9.20142 13.9925 9.20142Z" fill="#2B478B"/>
<path d="M13.992 0.536133C8.42377 0.536133 3.52755 3.28588 0.519409 7.50643L2.18347 8.65749C4.8076 4.94852 9.12781 2.55048 13.992 2.55048C18.8243 2.55048 23.1125 4.94852 25.7366 8.59354L27.3687 7.41051C24.3925 3.22194 19.4963 0.536133 13.992 0.536133Z" fill="#2B478B"/>
<path d="M13.9922 5.2688C10.0241 5.2688 6.53589 7.21921 4.39178 10.2248L6.05589 11.3758C7.81597 8.91383 10.7281 7.28315 13.9922 7.28315C17.2244 7.28315 20.1046 8.88185 21.8966 11.3119L23.5287 10.1288C21.3846 7.18724 17.8964 5.2688 13.9922 5.2688Z" fill="#2B478B"/>
</svg>
